# xmcd CD database file
#
# Track frame offsets:
#	150
#	22056
#	44480
#	65271
#	107187
#	123003
#	146028
#	173009
#	205639
#	231769
#
# Disc length: 3459 seconds
#
# Revision: 0
# Processed by: cddbd v1.5.2PL0 Copyright (c) Steve Scherf et al.
# Submitted via: CDex 1.51
#
DISCID=860d810a
DTITLE=B. B. King - Orininal Hits
DYEAR=2001
DGENRE=Blues
TTITLE0=Every day I Have The Blues
TTITLE1=The Thrill Is Gone
TTITLE2=Why I Sing The Blues
TTITLE3=B.B'.s Theme
TTITLE4=Caledonia
TTITLE5=Darling You Know I love You
TTITLE6=Sweet Little Angel
TTITLE7=All Over Again
TTITLE8=Guess Who
TTITLE9=Payin' The Cost To Be The Boss
EXTD=YEAR: 2001
EXTT0=
EXTT1=
EXTT2=
EXTT3=
EXTT4=
EXTT5=
EXTT6=
EXTT7=
EXTT8=
EXTT9=
PLAYORDER=
